<svg width="58" height="31" viewBox="0 0 58 31" fill="none" xmlns="http://www.w3.org/2000/svg">
<circle cx="29" cy="22" r="9" fill="#5ED0AE"/>
<ellipse cx="14.5" cy="14" rx="14.5" ry="14" fill="#2A8367"/>
<path d="M3.22532 18V9.27273H6.6685C7.33043 9.27273 7.89435 9.39915 8.36026 9.65199C8.82617 9.90199 9.18129 10.25 9.4256 10.696C9.67276 11.1392 9.79634 11.6506 9.79634 12.2301C9.79634 12.8097 9.67134 13.321 9.42134 13.7642C9.17134 14.2074 8.80913 14.5526 8.33469 14.7997C7.8631 15.0469 7.29208 15.1705 6.62163 15.1705H4.42702V13.6918H6.32333C6.67844 13.6918 6.97106 13.6307 7.20117 13.5085C7.43413 13.3835 7.60742 13.2116 7.72106 12.9929C7.83754 12.7713 7.89577 12.517 7.89577 12.2301C7.89577 11.9403 7.83754 11.6875 7.72106 11.4716C7.60742 11.2528 7.43413 11.0838 7.20117 10.9645C6.96822 10.8423 6.67276 10.7812 6.31481 10.7812H5.07049V18H3.22532ZM10.9608 18V11.4545H12.7761V18H10.9608ZM11.8727 10.6108C11.6028 10.6108 11.3713 10.5213 11.1781 10.3423C10.9877 10.1605 10.8926 9.94318 10.8926 9.69034C10.8926 9.44034 10.9877 9.22585 11.1781 9.04688C11.3713 8.86506 11.6028 8.77415 11.8727 8.77415C12.1426 8.77415 12.3727 8.86506 12.563 9.04688C12.7562 9.22585 12.8528 9.44034 12.8528 9.69034C12.8528 9.94318 12.7562 10.1605 12.563 10.3423C12.3727 10.5213 12.1426 10.6108 11.8727 10.6108ZM17.1877 18.1278C16.5172 18.1278 15.9405 17.9858 15.4576 17.7017C14.9775 17.4148 14.6081 17.017 14.3496 16.5085C14.0939 16 13.9661 15.4148 13.9661 14.7528C13.9661 14.0824 14.0953 13.4943 14.3539 12.9886C14.6152 12.4801 14.986 12.0838 15.4661 11.7997C15.9462 11.5128 16.5172 11.3693 17.1792 11.3693C17.7502 11.3693 18.2502 11.473 18.6792 11.6804C19.1081 11.8878 19.4476 12.179 19.6976 12.554C19.9476 12.929 20.0854 13.3693 20.111 13.875H18.3979C18.3496 13.5483 18.2218 13.2855 18.0144 13.0866C17.8098 12.8849 17.5414 12.7841 17.209 12.7841C16.9277 12.7841 16.682 12.8608 16.4718 13.0142C16.2644 13.1648 16.1025 13.3849 15.986 13.6747C15.8695 13.9645 15.8113 14.3153 15.8113 14.7273C15.8113 15.1449 15.8681 15.5 15.9817 15.7926C16.0982 16.0852 16.2615 16.3082 16.4718 16.4616C16.682 16.6151 16.9277 16.6918 17.209 16.6918C17.4164 16.6918 17.6025 16.6491 17.7672 16.5639C17.9348 16.4787 18.0726 16.3551 18.1806 16.1932C18.2914 16.0284 18.3638 15.831 18.3979 15.6009H20.111C20.0826 16.1009 19.9462 16.5412 19.7019 16.9219C19.4604 17.2997 19.1266 17.5952 18.7005 17.8082C18.2743 18.0213 17.7701 18.1278 17.1877 18.1278ZM22.9181 16.1165L22.9224 13.9389H23.1866L25.2832 11.4545H27.367L24.5502 14.7443H24.1199L22.9181 16.1165ZM21.2733 18V9.27273H23.0886V18H21.2733ZM25.3642 18L23.438 15.1491L24.6483 13.8665L27.4906 18H25.3642Z" fill="#F8F8F8"/>
<path d="M29.8152 18V9.27273H35.5936V10.794H31.6603V12.8736H35.2101V14.3949H31.6603V18H29.8152ZM39.2775 18.1278C38.6156 18.1278 38.0431 17.9872 37.5602 17.706C37.0801 17.4219 36.7093 17.027 36.448 16.5213C36.1866 16.0128 36.0559 15.4233 36.0559 14.7528C36.0559 14.0767 36.1866 13.4858 36.448 12.9801C36.7093 12.4716 37.0801 12.0767 37.5602 11.7955C38.0431 11.5114 38.6156 11.3693 39.2775 11.3693C39.9395 11.3693 40.5105 11.5114 40.9906 11.7955C41.4735 12.0767 41.8457 12.4716 42.1071 12.9801C42.3684 13.4858 42.4991 14.0767 42.4991 14.7528C42.4991 15.4233 42.3684 16.0128 42.1071 16.5213C41.8457 17.027 41.4735 17.4219 40.9906 17.706C40.5105 17.9872 39.9395 18.1278 39.2775 18.1278ZM39.286 16.7216C39.5872 16.7216 39.8386 16.6364 40.0403 16.4659C40.242 16.2926 40.394 16.0568 40.4963 15.7585C40.6014 15.4602 40.6539 15.1207 40.6539 14.7401C40.6539 14.3594 40.6014 14.0199 40.4963 13.7216C40.394 13.4233 40.242 13.1875 40.0403 13.0142C39.8386 12.8409 39.5872 12.7543 39.286 12.7543C38.9821 12.7543 38.7264 12.8409 38.519 13.0142C38.3145 13.1875 38.1596 13.4233 38.0545 13.7216C37.9522 14.0199 37.9011 14.3594 37.9011 14.7401C37.9011 15.1207 37.9522 15.4602 38.0545 15.7585C38.1596 16.0568 38.3145 16.2926 38.519 16.4659C38.7264 16.6364 38.9821 16.7216 39.286 16.7216ZM46.6369 18.1278C45.975 18.1278 45.4025 17.9872 44.9196 17.706C44.4395 17.4219 44.0687 17.027 43.8074 16.5213C43.546 16.0128 43.4153 15.4233 43.4153 14.7528C43.4153 14.0767 43.546 13.4858 43.8074 12.9801C44.0687 12.4716 44.4395 12.0767 44.9196 11.7955C45.4025 11.5114 45.975 11.3693 46.6369 11.3693C47.2988 11.3693 47.8699 11.5114 48.35 11.7955C48.8329 12.0767 49.2051 12.4716 49.4664 12.9801C49.7278 13.4858 49.8585 14.0767 49.8585 14.7528C49.8585 15.4233 49.7278 16.0128 49.4664 16.5213C49.2051 17.027 48.8329 17.4219 48.35 17.706C47.8699 17.9872 47.2988 18.1278 46.6369 18.1278ZM46.6454 16.7216C46.9466 16.7216 47.198 16.6364 47.3997 16.4659C47.6014 16.2926 47.7534 16.0568 47.8556 15.7585C47.9608 15.4602 48.0133 15.1207 48.0133 14.7401C48.0133 14.3594 47.9608 14.0199 47.8556 13.7216C47.7534 13.4233 47.6014 13.1875 47.3997 13.0142C47.198 12.8409 46.9466 12.7543 46.6454 12.7543C46.3414 12.7543 46.0858 12.8409 45.8784 13.0142C45.6738 13.1875 45.519 13.4233 45.4139 13.7216C45.3116 14.0199 45.2605 14.3594 45.2605 14.7401C45.2605 15.1207 45.3116 15.4602 45.4139 15.7585C45.519 16.0568 45.6738 16.2926 45.8784 16.4659C46.0858 16.6364 46.3414 16.7216 46.6454 16.7216ZM53.4508 18.1065C52.9537 18.1065 52.5034 17.9787 52.1 17.723C51.6994 17.4645 51.3812 17.0852 51.1454 16.5852C50.9125 16.0824 50.796 15.4659 50.796 14.7358C50.796 13.9858 50.9167 13.3622 51.1582 12.8651C51.3997 12.3651 51.7207 11.9915 52.1213 11.7443C52.5247 11.4943 52.9664 11.3693 53.4466 11.3693C53.813 11.3693 54.1184 11.4318 54.3627 11.5568C54.6099 11.679 54.8088 11.8324 54.9593 12.017C55.1127 12.1989 55.2292 12.3778 55.3088 12.554H55.3642V9.27273H57.1752V18H55.3855V16.9517H55.3088C55.2235 17.1335 55.1028 17.3139 54.9466 17.4929C54.7931 17.669 54.5929 17.8153 54.3457 17.9318C54.1014 18.0483 53.8031 18.1065 53.4508 18.1065ZM54.0261 16.6619C54.3187 16.6619 54.5659 16.5824 54.7676 16.4233C54.9721 16.2614 55.1284 16.0355 55.2363 15.7457C55.3471 15.456 55.4025 15.1165 55.4025 14.7273C55.4025 14.3381 55.3485 14 55.2406 13.7131C55.1326 13.4261 54.9764 13.2045 54.7718 13.0483C54.5673 12.892 54.3187 12.8139 54.0261 12.8139C53.7278 12.8139 53.4764 12.8949 53.2718 13.0568C53.0673 13.2187 52.9125 13.4432 52.8074 13.7301C52.7022 14.017 52.6497 14.3494 52.6497 14.7273C52.6497 15.108 52.7022 15.4446 52.8074 15.7372C52.9153 16.027 53.0701 16.2543 53.2718 16.419C53.4764 16.581 53.7278 16.6619 54.0261 16.6619Z" fill="#343434"/>
</svg>
