<svg width="15" height="15" viewBox="0 0 15 15" fill="none" xmlns="http://www.w3.org/2000/svg">
<path d="M7.5 0C11.6422 0 15 3.35786 15 7.5C15 11.6422 11.6422 15 7.5 15C3.35786 15 0 11.6422 0 7.5C0 3.35786 3.35786 0 7.5 0ZM7.5 0.9375C3.87563 0.9375 0.9375 3.87563 0.9375 7.5C0.9375 11.1244 3.87563 14.0625 7.5 14.0625C11.1244 14.0625 14.0625 11.1244 14.0625 7.5C14.0625 3.87563 11.1244 0.9375 7.5 0.9375ZM7.5 3.75C7.75884 3.75 7.96875 3.95987 7.96875 4.21875V7.03125H10.7812C11.0401 7.03125 11.25 7.24112 11.25 7.5C11.25 7.75884 11.0401 7.96875 10.7812 7.96875H7.96875V10.7812C7.96875 11.0401 7.75884 11.25 7.5 11.25C7.24112 11.25 7.03125 11.0401 7.03125 10.7812V7.96875H4.21875C3.95987 7.96875 3.75 7.75884 3.75 7.5C3.75 7.24112 3.95987 7.03125 4.21875 7.03125H7.03125V4.21875C7.03125 3.95987 7.24112 3.75 7.5 3.75Z" fill="#2A8367"/>
</svg>
