<svg width="22" height="20" viewBox="0 0 22 20" fill="none" xmlns="http://www.w3.org/2000/svg">
<path d="M0.127293 18.5065L10.1263 0.514027C10.4754 -0.114228 11.3328 -0.166583 11.7666 0.356963L11.8737 0.514027L21.8727 18.5065C22.2145 19.1216 21.8303 19.8666 21.1696 19.9776L20.999 19.9917H1.00102C0.297429 19.9917 -0.167188 19.2939 0.0567135 18.6626L0.127293 18.5065ZM11 3.05736L2.70009 17.9925H19.2999L11 3.05736ZM11 13.7482C11.688 13.7482 12.2457 14.3059 12.2457 14.9938C12.2457 15.6818 11.688 16.2395 11 16.2395C10.312 16.2395 9.75434 15.6818 9.75434 14.9938C9.75434 14.3059 10.312 13.7482 11 13.7482ZM10.9992 8.0018C11.49 8.00218 11.8978 8.3561 11.9821 8.82247L11.9981 9.00215L11.9965 10.9962C11.9961 11.5482 11.5482 11.9954 10.9962 11.995C10.5055 11.9946 10.0976 11.6407 10.0133 11.1744L9.99736 10.9947L9.99889 9.00062C9.99931 8.44857 10.4472 8.00138 10.9992 8.0018Z" fill="#212121"/>
</svg>
