<svg width="21" height="21" viewBox="0 0 21 21" fill="none" xmlns="http://www.w3.org/2000/svg">
<path d="M10.5 21C4.70101 21 0 16.299 0 10.5C0 4.70101 4.70101 0 10.5 0C16.299 0 21 4.70101 21 10.5C21 16.299 16.299 21 10.5 21ZM9.68065 15.2576L9.76898 15.3338C10.043 15.5372 10.4191 15.5397 10.6957 15.3414L10.7943 15.2576L10.8706 15.1693C11.0739 14.8952 11.0764 14.5191 10.8781 14.2425L10.7943 14.1439L7.93874 11.2882L14.9632 11.2882L15.0701 11.2811C15.4195 11.2336 15.6961 10.957 15.7436 10.6076L15.7507 10.5007L15.7436 10.3939C15.6961 10.0444 15.4195 9.76783 15.0701 9.72043L14.9632 9.71324L7.93874 9.71324L10.795 6.85683L10.8712 6.76852C11.1001 6.46027 11.0747 6.02277 10.7952 5.74314C10.5157 5.4635 10.0782 5.438 9.76984 5.66669L9.6815 5.74292L5.4799 9.94292L5.40362 10.0312C5.20022 10.3053 5.19767 10.6815 5.396 10.9581L5.47979 11.0567L9.68065 15.2576Z" fill="#5ED0AE"/>
</svg>
