<svg width="10" height="10" viewBox="0 0 10 10" fill="none" xmlns="http://www.w3.org/2000/svg">
<path d="M3.85965 0C5.99127 0 7.7193 1.72802 7.7193 3.85965C7.7193 4.73566 7.42745 5.54351 6.93569 6.19128L9.84585 9.10152C10.0514 9.30706 10.0514 9.64031 9.84585 9.84585C9.65899 10.0327 9.3666 10.0497 9.16055 9.89681L9.10152 9.84585L6.19128 6.93569C5.54351 7.42745 4.73566 7.7193 3.85965 7.7193C1.72802 7.7193 0 5.99127 0 3.85965C0 1.72802 1.72802 0 3.85965 0ZM3.85965 1.05263C2.30938 1.05263 1.05263 2.30938 1.05263 3.85965C1.05263 5.40992 2.30938 6.66667 3.85965 6.66667C5.40992 6.66667 6.66667 5.40992 6.66667 3.85965C6.66667 2.30938 5.40992 1.05263 3.85965 1.05263Z" fill="#343434"/>
</svg>
