<svg width="14" height="13" viewBox="0 0 14 13" fill="none" xmlns="http://www.w3.org/2000/svg">
<path d="M5.2612 0C8.03231 0 10.2787 2.24643 10.2787 5.01754C10.2787 6.15636 9.89934 7.20657 9.26005 8.04866L13.0433 11.832C13.3105 12.0992 13.3105 12.5324 13.0433 12.7996C12.8003 13.0425 12.4202 13.0646 12.1524 12.8658L12.0756 12.7996L8.29231 9.0164C7.45022 9.65569 6.40001 10.0351 5.2612 10.0351C2.49008 10.0351 0.243652 7.78866 0.243652 5.01754C0.243652 2.24643 2.49008 0 5.2612 0ZM5.2612 1.36842C3.24584 1.36842 1.61207 3.00219 1.61207 5.01754C1.61207 7.0329 3.24584 8.66667 5.2612 8.66667C7.27655 8.66667 8.91032 7.0329 8.91032 5.01754C8.91032 3.00219 7.27655 1.36842 5.2612 1.36842Z" fill="#343434"/>
</svg>
