<svg width="7" height="10" viewBox="0 0 7 10" fill="none" xmlns="http://www.w3.org/2000/svg">
<path d="M3.15 0C3.32182 0 3.46473 0.123813 3.49436 0.287087L3.5 0.35V2.45C3.5 3.29653 2.89894 4.00267 2.1003 4.16493L2.1 9.45C2.1 9.6433 1.9433 9.8 1.75 9.8C1.57818 9.8 1.43527 9.67619 1.40564 9.51291L1.4 9.45L1.4004 4.16507C0.639464 4.0108 0.057726 3.36281 0.00404782 2.56997L0 2.45V0.35C0 0.1567 0.1567 0 0.35 0C0.521822 0 0.664726 0.123813 0.694361 0.287087L0.7 0.35V2.45C0.7 2.90725 0.99228 3.29624 1.4002 3.44033L1.4 0.35C1.4 0.1567 1.5567 0 1.75 0C1.92182 0 2.06473 0.123813 2.09436 0.287087L2.1 0.35L2.10049 3.44008C2.4767 3.3069 2.7544 2.96536 2.7949 2.55417L2.8 2.45V0.35C2.8 0.1567 2.9567 0 3.15 0ZM6.65 0C6.82182 0 6.96473 0.123813 6.99436 0.287087L7 0.35V9.45C7 9.6433 6.8433 9.8 6.65 9.8C6.47818 9.8 6.33527 9.67619 6.30564 9.51291L6.3 9.45V5.6H5.25C5.07818 5.6 4.93527 5.47619 4.90564 5.31291L4.9 5.25V1.75C4.9 0.783502 5.6835 0 6.65 0ZM6.3 4.9V0.759747C5.92355 0.892802 5.64564 1.23444 5.60511 1.64579L5.6 1.75V4.9H6.3Z" fill="#343434"/>
</svg>
