<svg width="10" height="10" viewBox="0 0 10 10" fill="none" xmlns="http://www.w3.org/2000/svg">
<path d="M0.416667 0C0.18655 0 0 0.18655 0 0.416667C0 0.646783 0.18655 0.833333 0.416667 0.833333H0.621417C0.80745 0.833333 0.970942 0.956658 1.02205 1.13553L2.34335 5.76007C2.49667 6.29669 2.98715 6.66667 3.54525 6.66667H7.3525C7.86358 6.66667 8.32325 6.35547 8.51308 5.88091L9.74167 2.80949C9.96058 2.26211 9.55742 1.66667 8.96792 1.66667H2.04048L1.82332 0.9066C1.67 0.369975 1.17952 0 0.621417 0H0.416667ZM3.14462 5.53113L2.27858 2.5H8.96792L7.73933 5.57142C7.67608 5.7296 7.52283 5.83333 7.3525 5.83333H3.54525C3.35922 5.83333 3.19573 5.71001 3.14462 5.53113Z" fill="#343434"/>
<path d="M3.75 10C4.44036 10 5 9.44033 5 8.75C5 8.05967 4.44036 7.5 3.75 7.5C3.05964 7.5 2.5 8.05967 2.5 8.75C2.5 9.44033 3.05964 10 3.75 10ZM3.75 9.16667C3.51988 9.16667 3.33333 8.98008 3.33333 8.75C3.33333 8.51992 3.51988 8.33333 3.75 8.33333C3.98012 8.33333 4.16667 8.51992 4.16667 8.75C4.16667 8.98008 3.98012 9.16667 3.75 9.16667Z" fill="#343434"/>
<path d="M7.08333 10C7.77366 10 8.33333 9.44033 8.33333 8.75C8.33333 8.05967 7.77366 7.5 7.08333 7.5C6.39297 7.5 5.83333 8.05967 5.83333 8.75C5.83333 9.44033 6.39297 10 7.08333 10ZM7.08333 9.16667C6.85324 9.16667 6.66666 8.98008 6.66666 8.75C6.66666 8.51992 6.85324 8.33333 7.08333 8.33333C7.31341 8.33333 7.49999 8.51992 7.49999 8.75C7.49999 8.98008 7.31341 9.16667 7.08333 9.16667Z" fill="#343434"/>
</svg>
