<svg width="11" height="12" viewBox="0 0 11 12" fill="none" xmlns="http://www.w3.org/2000/svg">
<path d="M4.46631 0.536515C4.77228 -0.178839 5.65634 -0.178837 5.96233 0.536515L7.1215 3.24662L9.71354 3.68122C10.3977 3.79592 10.6709 4.76607 10.1758 5.3229L8.30021 7.43242L8.74298 10.4111C8.85985 11.1973 8.14463 11.797 7.53267 11.4258L5.21432 10.0194L2.89595 11.4258C2.28399 11.797 1.56877 11.1973 1.68565 10.4111L2.12841 7.43242L0.25281 5.3229C-0.242265 4.76607 0.0309271 3.79592 0.715115 3.68122L3.30712 3.24662L4.46631 0.536515ZM5.21432 1.50617L4.19361 3.89252C4.07211 4.17658 3.83724 4.37348 3.56555 4.41903L1.2832 4.8017L2.93473 6.65921C3.13132 6.88032 3.22103 7.1989 3.17462 7.51112L2.78475 10.134L4.82615 8.89563C5.06915 8.74821 5.35947 8.74821 5.60248 8.89563L7.64387 10.134L7.254 7.51113C7.20759 7.1989 7.29731 6.88032 7.4939 6.65921L9.14543 4.8017L6.86307 4.41903C6.59139 4.37348 6.35651 4.17658 6.23501 3.89252L5.21432 1.50617Z" fill="#DCCA27"/>
</svg>
