<svg width="10" height="15" viewBox="0 0 10 15" fill="none" xmlns="http://www.w3.org/2000/svg">
<path d="M0.777646 14.8938C0.445392 15.171 0 14.8734 0 14.3741V2.51287C0 1.13422 0.893248 0.0159194 1.99642 0.0134495L7.99642 4.05791e-06C9.10098 -0.0024567 9.99802 1.11456 10 2.49495V14.3741C10 14.8734 9.55461 15.171 9.22235 14.8938L5 11.3705L0.777646 14.8938ZM9 2.49943L8.99306 2.35147C8.93441 1.73007 8.51104 1.24858 7.99821 1.24972L1.99821 1.26316C1.44662 1.26439 1 1.82354 1 2.51287V13.2055L4.72235 10.0995C4.89044 9.95927 5.10956 9.95927 5.27765 10.0995L9 13.2055V2.49943Z" fill="#5ED0AE"/>
</svg>
