<svg width="19" height="19" viewBox="0 0 19 19" fill="none" xmlns="http://www.w3.org/2000/svg">
<path d="M15.0416 5.54492C15.0416 6.42119 14.3314 7.13153 13.455 7.13153C12.5788 7.13153 11.8684 6.42119 11.8684 5.54492C11.8684 4.66866 12.5788 3.95831 13.455 3.95831C14.3314 3.95831 15.0416 4.66866 15.0416 5.54492Z" fill="#343434"/>
<path d="M0 3.95833C0 1.77221 1.77221 0 3.95833 0H15.0417C17.2278 0 19 1.77221 19 3.95833V15.0417C19 17.2278 17.2278 19 15.0417 19H3.95833C1.77221 19 0 17.2278 0 15.0417V3.95833ZM3.95833 1.58333C2.64665 1.58333 1.58333 2.64665 1.58333 3.95833V15.0417C1.58333 15.4084 1.66643 15.7556 1.81482 16.0656L7.59677 10.2837C8.64793 9.23258 10.3522 9.23258 11.4034 10.2837L17.1852 16.0656C17.3335 15.7556 17.4167 15.4084 17.4167 15.0417V3.95833C17.4167 2.64665 16.3533 1.58333 15.0417 1.58333H3.95833ZM16.0656 17.1852L10.2838 11.4033C9.85093 10.9705 9.14918 10.9705 8.71635 11.4033L2.93444 17.1852C3.24447 17.3335 3.5917 17.4167 3.95833 17.4167H15.0417C15.4084 17.4167 15.7556 17.3335 16.0656 17.1852Z" fill="#343434"/>
</svg>
