<svg width="10" height="10" viewBox="0 0 10 10" fill="none" xmlns="http://www.w3.org/2000/svg">
<path d="M4.08318 0.210079C4.37944 -0.0700263 4.84288 -0.0700263 5.13915 0.210079L8.8615 3.72943C9.09183 3.94718 9.22233 4.25015 9.22233 4.5671V8.84721C9.22233 9.48386 8.70618 10 8.06954 10H6.53248C5.89581 10 5.37969 9.48386 5.37969 8.84721V6.92589C5.37969 6.71369 5.20765 6.54165 4.99543 6.54165H4.2269C4.01468 6.54165 3.84264 6.71369 3.84264 6.92589V8.84721C3.84264 9.48386 3.32652 10 2.68985 10H1.15279C0.51612 10 0 9.48386 0 8.84721V4.5671C0 4.25015 0.130496 3.94718 0.360808 3.72943L4.08318 0.210079ZM4.61116 0.768529L0.888794 4.28788C0.812026 4.36046 0.768527 4.46145 0.768527 4.5671V8.84721C0.768527 9.0594 0.94057 9.23147 1.15279 9.23147H2.68985C2.90207 9.23147 3.07411 9.0594 3.07411 8.84721V6.92589C3.07411 6.28925 3.59023 5.77312 4.2269 5.77312H4.99543C5.6321 5.77312 6.14822 6.28925 6.14822 6.92589V8.84721C6.14822 9.0594 6.32029 9.23147 6.53248 9.23147H8.06954C8.28173 9.23147 8.4538 9.0594 8.4538 8.84721V4.5671C8.4538 4.46145 8.4103 4.36046 8.33352 4.28788L4.61116 0.768529Z" fill="#343434"/>
</svg>
