<svg width="12" height="14" viewBox="0 0 12 14" fill="none" xmlns="http://www.w3.org/2000/svg">
<path d="M4.36365 5.45457V9.81821C4.36365 10.1194 4.60786 10.3637 4.9091 10.3637C5.21035 10.3637 5.45456 10.1194 5.45456 9.81821V5.45457C5.45456 5.15333 5.21035 4.90912 4.9091 4.90912C4.60786 4.90912 4.36365 5.15333 4.36365 5.45457Z" fill="#E95656"/>
<path d="M7.0909 4.90912C7.39214 4.90912 7.63635 5.15333 7.63635 5.45457V9.81821C7.63635 10.1194 7.39214 10.3637 7.0909 10.3637C6.78965 10.3637 6.54544 10.1194 6.54544 9.81821V5.45457C6.54544 5.15333 6.78965 4.90912 7.0909 4.90912Z" fill="#E95656"/>
<path d="M8.18182 2.18182H11.4545C11.7557 2.18182 12 2.42603 12 2.72727C12 3.02852 11.7557 3.27273 11.4545 3.27273H10.8518L10.0305 10.6648C9.87698 12.046 8.7096 13.0909 7.3199 13.0909H4.68009C3.29041 13.0909 2.12296 12.046 1.96949 10.6648L1.14815 3.27273H0.545455C0.244211 3.27273 0 3.02852 0 2.72727C0 2.42603 0.244211 2.18182 0.545455 2.18182H3.81818C3.81818 0.976833 4.79501 0 6 0C7.20499 0 8.18182 0.976833 8.18182 2.18182ZM6 1.09091C5.39751 1.09091 4.90909 1.57933 4.90909 2.18182H7.09091C7.09091 1.57933 6.6025 1.09091 6 1.09091ZM2.24578 3.27273L3.05373 10.5443C3.14581 11.3731 3.84627 12 4.68009 12H7.3199C8.15371 12 8.85415 11.3731 8.94622 10.5443L9.75425 3.27273H2.24578Z" fill="#E95656"/>
</svg>
