<svg width="13" height="15" viewBox="0 0 13 15" fill="none" xmlns="http://www.w3.org/2000/svg">
<path d="M4.72729 5.90915V10.6364C4.72729 10.9627 4.99186 11.2273 5.3182 11.2273C5.64455 11.2273 5.90911 10.9627 5.90911 10.6364V5.90915C5.90911 5.5828 5.64455 5.31824 5.3182 5.31824C4.99186 5.31824 4.72729 5.5828 4.72729 5.90915Z" fill="#343434"/>
<path d="M7.68185 5.31824C8.0082 5.31824 8.27276 5.5828 8.27276 5.90915V10.6364C8.27276 10.9627 8.0082 11.2273 7.68185 11.2273C7.3555 11.2273 7.09094 10.9627 7.09094 10.6364V5.90915C7.09094 5.5828 7.3555 5.31824 7.68185 5.31824Z" fill="#343434"/>
<path d="M8.86364 2.36364H12.4091C12.7354 2.36364 13 2.6282 13 2.95455C13 3.28089 12.7354 3.54545 12.4091 3.54545H11.7561L10.8663 11.5536C10.7001 13.0499 9.4354 14.1818 7.92989 14.1818H5.07009C3.56461 14.1818 2.29988 13.0499 2.13362 11.5536L1.24383 3.54545H0.590909C0.264562 3.54545 0 3.28089 0 2.95455C0 2.6282 0.264562 2.36364 0.590909 2.36364H4.13636C4.13636 1.05824 5.1946 0 6.5 0C7.8054 0 8.86364 1.05824 8.86364 2.36364ZM6.5 1.18182C5.84731 1.18182 5.31818 1.71094 5.31818 2.36364H7.68182C7.68182 1.71094 7.15271 1.18182 6.5 1.18182ZM2.43293 3.54545L3.3082 11.423C3.40796 12.3208 4.1668 13 5.07009 13H7.92989C8.83318 13 9.59199 12.3208 9.69174 11.423L10.5671 3.54545H2.43293Z" fill="#343434"/>
</svg>
