<svg width="15" height="15" viewBox="0 0 15 15" fill="none" xmlns="http://www.w3.org/2000/svg">
<path d="M5.78947 0C8.98691 0 11.5789 2.59204 11.5789 5.78947C11.5789 7.1035 11.1412 8.31527 10.4035 9.28692L14.7688 13.6523C15.0771 13.9606 15.0771 14.4605 14.7688 14.7688C14.4885 15.049 14.0499 15.0745 13.7408 14.8452L13.6523 14.7688L9.28692 10.4035C8.31527 11.1412 7.1035 11.5789 5.78947 11.5789C2.59204 11.5789 0 8.98691 0 5.78947C0 2.59204 2.59204 0 5.78947 0ZM5.78947 1.57895C3.46406 1.57895 1.57895 3.46406 1.57895 5.78947C1.57895 8.11488 3.46406 10 5.78947 10C8.11488 10 10 8.11488 10 5.78947C10 3.46406 8.11488 1.57895 5.78947 1.57895Z" fill="#5ED0AE"/>
</svg>
