<svg width="15" height="15" viewBox="0 0 15 15" fill="none" xmlns="http://www.w3.org/2000/svg">
<path d="M4.6875 7.5C4.6875 8.01778 4.26776 8.4375 3.75 8.4375C3.23224 8.4375 2.8125 8.01778 2.8125 7.5C2.8125 6.98224 3.23224 6.5625 3.75 6.5625C4.26776 6.5625 4.6875 6.98224 4.6875 7.5Z" fill="#212121"/>
<path d="M8.4375 7.5C8.4375 8.01778 8.01778 8.4375 7.5 8.4375C6.98224 8.4375 6.5625 8.01778 6.5625 7.5C6.5625 6.98224 6.98224 6.5625 7.5 6.5625C8.01778 6.5625 8.4375 6.98224 8.4375 7.5Z" fill="#212121"/>
<path d="M12.1875 7.5C12.1875 8.01778 11.7678 8.4375 11.25 8.4375C10.7322 8.4375 10.3125 8.01778 10.3125 7.5C10.3125 6.98224 10.7322 6.5625 11.25 6.5625C11.7678 6.5625 12.1875 6.98224 12.1875 7.5Z" fill="#212121"/>
<path d="M7.5 0C3.35786 0 0 3.35786 0 7.5C0 11.6422 3.35786 15 7.5 15C11.6422 15 15 11.6422 15 7.5C15 3.35786 11.6422 0 7.5 0ZM0.9375 7.5C0.9375 3.87563 3.87563 0.9375 7.5 0.9375C11.1244 0.9375 14.0625 3.87563 14.0625 7.5C14.0625 11.1244 11.1244 14.0625 7.5 14.0625C3.87563 14.0625 0.9375 11.1244 0.9375 7.5Z" fill="#212121"/>
</svg>
