<svg width="13" height="17" viewBox="0 0 13 17" fill="none" xmlns="http://www.w3.org/2000/svg">
<path d="M10.5625 8.125C11.9087 8.125 13 9.2163 13 10.5625C13 12.3761 12.2542 13.8292 11.0303 14.8116C9.82569 15.7784 8.21126 16.25 6.5 16.25C4.78874 16.25 3.17431 15.7784 1.96974 14.8116C0.745826 13.8292 0 12.3761 0 10.5625C0 9.29555 0.966674 8.25428 2.20272 8.13616L2.43747 8.125H10.5625ZM10.5625 9.75H2.43747C1.98879 9.75 1.625 10.1138 1.625 10.5625C1.625 11.89 2.15236 12.8744 2.98691 13.5443C3.84082 14.2297 5.07013 14.625 6.5 14.625C7.92987 14.625 9.15918 14.2297 10.0131 13.5443C10.8476 12.8744 11.375 11.89 11.375 10.5625C11.375 10.1636 11.0876 9.83189 10.7085 9.76309L10.5625 9.75ZM6.5 0C8.29493 0 9.75 1.45507 9.75 3.25C9.75 5.04493 8.29493 6.5 6.5 6.5C4.70507 6.5 3.25 5.04493 3.25 3.25C3.25 1.45507 4.70507 0 6.5 0ZM6.5 1.625C5.60254 1.625 4.875 2.35255 4.875 3.25C4.875 4.14746 5.60254 4.875 6.5 4.875C7.39746 4.875 8.125 4.14746 8.125 3.25C8.125 2.35255 7.39746 1.625 6.5 1.625Z" fill="#212121"/>
</svg>
