<svg width="13" height="18" viewBox="0 0 13 18" fill="none" xmlns="http://www.w3.org/2000/svg">
<path d="M3.79167 5.41663C3.49251 5.41663 3.25 5.65914 3.25 5.95829C3.25 6.25744 3.49251 6.49996 3.79167 6.49996H9.20833C9.50744 6.49996 9.75 6.25744 9.75 5.95829C9.75 5.65914 9.50744 5.41663 9.20833 5.41663H3.79167Z" fill="#212121"/>
<path d="M3.25 9.20829C3.25 8.90918 3.49251 8.66663 3.79167 8.66663H9.20833C9.50744 8.66663 9.75 8.90918 9.75 9.20829C9.75 9.5074 9.50744 9.74996 9.20833 9.74996H3.79167C3.49251 9.74996 3.25 9.5074 3.25 9.20829Z" fill="#212121"/>
<path d="M3.79167 11.9166C3.49251 11.9166 3.25 12.1592 3.25 12.4583C3.25 12.7574 3.49251 13 3.79167 13H5.95833C6.25749 13 6.5 12.7574 6.5 12.4583C6.5 12.1592 6.25749 11.9166 5.95833 11.9166H3.79167Z" fill="#212121"/>
<path d="M2.70833 0C2.40918 0 2.16667 0.242515 2.16667 0.541667V1.08333H1.625C0.727534 1.08333 0 1.81087 0 2.70833V15.7083C0 16.6058 0.727534 17.3333 1.625 17.3333H8.125C8.26865 17.3333 8.40645 17.2762 8.50807 17.1747L12.8414 12.8414C12.9429 12.7398 13 12.602 13 12.4583V2.70833C13 1.81087 12.2724 1.08333 11.375 1.08333H10.8333V0.541667C10.8333 0.242515 10.5908 0 10.2917 0C9.99256 0 9.75 0.242515 9.75 0.541667V1.08333H7.04167V0.541667C7.04167 0.242515 6.79911 0 6.5 0C6.20085 0 5.95833 0.242515 5.95833 0.541667V1.08333H3.25V0.541667C3.25 0.242515 3.00749 0 2.70833 0ZM11.375 2.16667C11.6741 2.16667 11.9167 2.40918 11.9167 2.70833V11.9167H9.20833C8.3109 11.9167 7.58333 12.6442 7.58333 13.5417V16.25H1.625C1.32585 16.25 1.08333 16.0074 1.08333 15.7083V2.70833C1.08333 2.40918 1.32585 2.16667 1.625 2.16667H11.375ZM11.1506 13L8.66667 15.484V13.5417C8.66667 13.2426 8.90923 13 9.20833 13H11.1506Z" fill="#212121"/>
</svg>
