<svg width="10" height="10" viewBox="0 0 10 10" fill="none" xmlns="http://www.w3.org/2000/svg">
<path d="M3.21425 3.03571C3.21425 3.33158 2.9744 3.57143 2.67854 3.57143C2.38267 3.57143 2.14282 3.33158 2.14282 3.03571C2.14282 2.73985 2.38267 2.5 2.67854 2.5C2.9744 2.5 3.21425 2.73985 3.21425 3.03571Z" fill="#343434"/>
<path d="M2.67854 5.71428C2.9744 5.71428 3.21425 5.47442 3.21425 5.17857C3.21425 4.8827 2.9744 4.64285 2.67854 4.64285C2.38267 4.64285 2.14282 4.8827 2.14282 5.17857C2.14282 5.47442 2.38267 5.71428 2.67854 5.71428Z" fill="#343434"/>
<path d="M3.21425 7.32142C3.21425 7.61728 2.9744 7.85713 2.67854 7.85713C2.38267 7.85713 2.14282 7.61728 2.14282 7.32142C2.14282 7.02556 2.38267 6.78571 2.67854 6.78571C2.9744 6.78571 3.21425 7.02556 3.21425 7.32142Z" fill="#343434"/>
<path d="M4.64279 2.85715C4.44554 2.85715 4.28564 3.01705 4.28564 3.21429C4.28564 3.41153 4.44554 3.57143 4.64279 3.57143H7.49993C7.69714 3.57143 7.85707 3.41153 7.85707 3.21429C7.85707 3.01705 7.69714 2.85715 7.49993 2.85715H4.64279Z" fill="#343434"/>
<path d="M4.28564 5.35714C4.28564 5.15993 4.44554 5 4.64279 5H7.49993C7.69714 5 7.85707 5.15993 7.85707 5.35714C7.85707 5.55436 7.69714 5.71429 7.49993 5.71429H4.64279C4.44554 5.71429 4.28564 5.55436 4.28564 5.35714Z" fill="#343434"/>
<path d="M4.64279 7.14285C4.44554 7.14285 4.28564 7.30278 4.28564 7.5C4.28564 7.69721 4.44554 7.85714 4.64279 7.85714H7.49993C7.69714 7.85714 7.85707 7.69721 7.85707 7.5C7.85707 7.30278 7.69714 7.14285 7.49993 7.14285H4.64279Z" fill="#343434"/>
<path d="M0 1.42857C0 0.639593 0.639593 0 1.42857 0H8.57143C9.36043 0 10 0.639593 10 1.42857V8.57143C10 9.36043 9.36043 10 8.57143 10H1.42857C0.639593 10 0 9.36043 0 8.57143V1.42857ZM1.42857 0.714286C1.03409 0.714286 0.714286 1.03409 0.714286 1.42857V8.57143C0.714286 8.96593 1.03409 9.28571 1.42857 9.28571H8.57143C8.96593 9.28571 9.28571 8.96593 9.28571 8.57143V1.42857C9.28571 1.03409 8.96593 0.714286 8.57143 0.714286H1.42857Z" fill="#343434"/>
</svg>
