<svg width="15" height="14" viewBox="0 0 15 14" fill="none" xmlns="http://www.w3.org/2000/svg">
<path d="M5.5 8.25C5.91421 8.25 6.25 7.9142 6.25 7.5C6.25 7.0858 5.91421 6.75 5.5 6.75C5.08579 6.75 4.75 7.0858 4.75 7.5C4.75 7.9142 5.08579 8.25 5.5 8.25Z" fill="#212121"/>
<path d="M8 0.500004C8 0.354204 7.9364 0.215674 7.8257 0.120684C7.7151 0.025694 7.5686 -0.0162862 7.4244 0.00574379L0.42445 1.07574C0.18032 1.11306 0 1.32303 0 1.57V12.43C0 12.6769 0.18028 12.8869 0.42438 12.9243L7.4244 13.9953C7.5685 14.0173 7.7151 13.9754 7.8257 13.8804C7.9363 13.7854 8 13.6468 8 13.501V7H13.1722L12.1753 7.8737C11.9679 8.0556 11.9468 8.3714 12.1284 8.5793C12.3099 8.7871 12.6253 8.8081 12.8328 8.6263L14.8295 6.8763C14.9379 6.78135 15 6.64419 15 6.50001C15 6.35583 14.9379 6.21867 14.8295 6.12372L12.8328 4.37372C12.6253 4.19188 12.3099 4.21294 12.1284 4.42076C11.9468 4.62858 11.9679 4.94446 12.1753 5.1263L13.1723 6.00002H8V0.500004ZM7 1.08224V12.9187L1 12.0007V1.99938L7 1.08224Z" fill="#212121"/>
<path d="M9.5 13H9V8H10V12.5C10 12.7761 9.7761 13 9.5 13Z" fill="#212121"/>
<path d="M9 5V1H9.5C9.7761 1 10 1.22386 10 1.5V5H9Z" fill="#212121"/>
</svg>
