<svg width="104" height="85" viewBox="0 0 104 85" fill="none" xmlns="http://www.w3.org/2000/svg">
<path d="M75.9113 4H27.9384C9.56485 4 4.43176 8.4135 4 25.5878C13.2588 25.5878 20.7425 33.1195 20.7425 42.3783C20.7425 51.637 13.2588 59.1208 4 59.1687C4.43176 76.343 9.56485 80.7565 27.9384 80.7565H75.9113C95.1005 80.7565 99.8978 75.9592 99.8978 56.7701V27.9864C99.8978 8.79728 95.1005 4 75.9113 4Z" stroke="#343434" stroke-width="7.19592" stroke-linecap="round" stroke-linejoin="round"/>
<path d="M37.5247 4V20.7905" stroke="#343434" stroke-width="7.19592" stroke-linecap="round" stroke-linejoin="round"/>
<path d="M37.5247 63.9661V80.7565" stroke="#343434" stroke-width="7.19592" stroke-linecap="round" stroke-linejoin="round"/>
<path d="M66.4612 29.5691L69.4356 35.5657C69.7234 36.1413 70.2991 36.5731 70.9227 36.669L77.543 37.6285C79.174 37.8684 79.8457 39.8832 78.6463 41.0346L73.8491 45.6879C73.3693 46.1197 73.1774 46.7913 73.2734 47.4629L74.4247 54.0352C74.7126 55.6663 72.9855 56.9136 71.5464 56.146L65.6457 53.0278C65.07 52.7399 64.3504 52.7399 63.7748 53.0278L57.8741 56.146C56.3869 56.9136 54.7079 55.6663 54.9957 54.0352L56.1471 47.4629C56.243 46.7913 56.0511 46.1676 55.5714 45.6879L50.8221 41.0346C49.6228 39.8832 50.2944 37.8684 51.9255 37.6285L58.5457 36.669C59.2173 36.5731 59.745 36.1893 60.0329 35.5657L62.9592 29.5691C63.6308 28.0819 65.7416 28.0819 66.4612 29.5691Z" stroke="#343434" stroke-width="7.19592" stroke-linecap="round" stroke-linejoin="round"/>
</svg>
